<?xml version="1.0"?>
<svg xmlns="http://www.w3.org/2000/svg" viewBox="0 0 64 64" width="512" height="512"><g id="house-stay_at_home-coronavirus-covid-covid19" data-name="house-stay at home-coronavirus-covid-covid19"><path d="M58,61H6V28L32,13,58,28ZM21,58H43V55h9V44a8,8,0,0,0-8-8H41a6,6,0,1,0-5.89-7.13A5.959,5.959,0,0,0,32,28a5.842,5.842,0,0,0-3.05.84l-.1-.16A6,6,0,1,0,23,36H20a8,8,0,0,0-8,8V55h9Z" style="fill:#78b9eb"/><polygon points="56 17.07 61 20 61 26 32 9 3 26 3 24 3 20 32 3 48 12.38 56 17.07" style="fill:#78b9eb"/><path d="M61.506,19.137,57,16.5V7a1,1,0,0,0-1-1H48a1,1,0,0,0-1,1v3.634l-14.494-8.5a1.006,1.006,0,0,0-1.012,0l-29,17A1,1,0,0,0,2,20v6a1,1,0,0,0,1.506.863L32,10.159l28.479,16.7A1,1,0,0,0,62,26V20A1,1,0,0,0,61.506,19.137ZM49,8h6v7.323l-6-3.517ZM60,24.254,32.506,8.137a1,1,0,0,0-1.012,0L4,24.254V20.573L32,4.159,60,20.573Z" style="fill:#006df0"/><path d="M58.5,27.13l-26-15a1.044,1.044,0,0,0-1,0l-26,15A1,1,0,0,0,5,28V61a1,1,0,0,0,1,1H58a1,1,0,0,0,1-1V28A1,1,0,0,0,58.5,27.13ZM57,60H7V28.58L32,14.15,57,28.58Z" style="fill:#006df0"/><path d="M45.71,35.17a7,7,0,1,0-11.23-7.71A7.046,7.046,0,0,0,32,27a6.888,6.888,0,0,0-2.49.47A6.924,6.924,0,0,0,23,23a6.994,6.994,0,0,0-4.71,12.17A9.013,9.013,0,0,0,11,44V55a1,1,0,0,0,1,1h8v2a1,1,0,0,0,1,1H43a1,1,0,0,0,1-1V56h8a1,1,0,0,0,1-1V44A9.013,9.013,0,0,0,45.71,35.17ZM41,25a5,5,0,1,1-2.03,9.57A5.441,5.441,0,0,0,39,34a7,7,0,0,0-2.74-5.54A5,5,0,0,1,41,25Zm-9,4a5,5,0,1,1-5,5A5,5,0,0,1,32,29ZM18,30a4.99,4.99,0,0,1,9.74-1.54A7,7,0,0,0,25,34a5.441,5.441,0,0,0,.03.57A5,5,0,0,1,18,30Zm2,18v6H13V44a7.008,7.008,0,0,1,7-7h5.69a7.15,7.15,0,0,0,1.6,2.17A9.013,9.013,0,0,0,20,48Zm22,9H39.91L39,47.9l-2,.2.89,8.9H26.11L27,48.1l-2-.2L24.09,57H22V48a7.008,7.008,0,0,1,7-7h6a7.008,7.008,0,0,1,7,7Zm9-3H44V48a9.013,9.013,0,0,0-7.29-8.83A7.15,7.15,0,0,0,38.31,37H44a7.008,7.008,0,0,1,7,7Z" style="fill:#006df0"/></g></svg>
